<svg xmlns="http://www.w3.org/2000/svg" width="317.4" height="67.3" viewBox="0 0 317.4 67.3"><title>get-baked-logo_1</title><g id="Layer_2" data-name="Layer 2"><g id="Layer_1-2" data-name="Layer 1"><path d="M38.6,13.4a28.7,28.7,0,0,0-13.3-3.2c-8.5,0-14.8,6.4-14.8,15.1s5.9,15,14.2,15,12.5-5.4,12.5-10.7V28.5H24.5V19.2H47.7a49.8,49.8,0,0,1,.6,7.2c0,12.8-8.2,24.1-23.9,24.1C10.2,50.5,0,39.5,0,25.3S10.7,0,25.3,0A35.7,35.7,0,0,1,38.6,2.3Z" fill="#231f20"/><path d="M61.6,34.9c.9,4.1,4.5,6.8,9.5,6.8a23,23,0,0,0,12.2-3.4v9.4a28.5,28.5,0,0,1-13,2.8c-10.6,0-18.5-7.5-18.5-18.7s7.6-18.6,18-18.6,16.7,7.8,16.7,17a21.2,21.2,0,0,1-.5,4.7Zm0-7.4H77.1c-.1-3.7-3.2-6.2-7.4-6.2S62.1,24.1,61.6,27.5Z" fill="#231f20"/><path d="M94.8,49.8V22.2H89.4V13.9h6V6l9.2-2v9.9h6.1v8.3h-6.1V49.8Z" fill="#231f20"/><path d="M132.3.8h17c8.9,0,15.2,5.2,15.2,13,0,5.4-2.3,8.9-5.8,10.8a12.1,12.1,0,0,1,7.2,11.6c0,8.1-6.8,13.6-16.2,13.6H132.3Zm16.9,9.9h-6.7v9h6.7c2.7,0,4.8-1.4,4.8-4.5S151.9,10.7,149.2,10.7Zm.5,18.9h-7.2V39.9h7.2c3.2,0,5.7-1.6,5.7-5.1S152.9,29.6,149.7,29.6Z" fill="#231f20"/><path d="M174.2,15.3a28.5,28.5,0,0,1,10.3-2.1c9.7,0,15.3,4.6,15.3,15V49.8H190V47.1a10.1,10.1,0,0,1-8,3.4c-8,0-11.8-5.6-11.8-11.6s4.7-11.5,12-11.5A12.2,12.2,0,0,1,190,30V28c0-4.3-2.9-6.1-6.6-6.1a18.3,18.3,0,0,0-9.2,2.7Zm10.7,28c2.8,0,5-1.9,5-4.4a5,5,0,0,0-10,0C179.9,41.4,182.1,43.3,184.9,43.3Z" fill="#231f20"/><path d="M207.6.1h9.8V27.4l9.8-13.5h11.6L228,28.4l10.8,21.4H227.4l-6.8-14.4-3.2,4.3V49.8h-9.8Z" fill="#231f20"/><path d="M249.9,34.9c.9,4.1,4.5,6.8,9.5,6.8a23.2,23.2,0,0,0,12.2-3.4v9.4a28.5,28.5,0,0,1-13,2.8c-10.6,0-18.5-7.5-18.5-18.7s7.6-18.6,17.9-18.6,16.8,7.8,16.8,17a29.5,29.5,0,0,1-.5,4.7Zm0-7.4h15.5c-.1-3.7-3.2-6.2-7.4-6.2S250.4,24.1,249.9,27.5Z" fill="#231f20"/><path d="M306.6,45.1a13.3,13.3,0,0,1-11,5.4c-10.1,0-17-8.2-17-18.7s6.9-18.6,17.1-18.6a13.1,13.1,0,0,1,10.9,5.3V.1h9.8V49.8h-9.8Zm-8.9-22.3a9.1,9.1,0,1,0,8.9,9A8.8,8.8,0,0,0,297.7,22.8Z" fill="#231f20"/><path d="M209.6,67.1V58.4h-2v-1h2.1V54.9l1.1-.3v2.8h2v1h-2v8.7Z" fill="#231f20"/><path d="M215.7,59.1a3.2,3.2,0,0,1,3.1-1.9,3.6,3.6,0,0,1,3.7,3.9v6h-1.1V61.3a2.8,2.8,0,0,0-2.9-3,2.8,2.8,0,0,0-2.8,2.9v5.9h-1.1V53.2h1.1Z" fill="#231f20"/><path d="M226,53.4a.9.9,0,0,1,.9.8.9.9,0,0,1-.9.9.8.8,0,0,1-.8-.9A.8.8,0,0,1,226,53.4Zm.6,13.7h-1.2V57.4h1.2Z" fill="#231f20"/><path d="M234.4,59.1a3.6,3.6,0,0,0-2.2-.9c-1.2,0-1.9.7-1.9,1.5s.3,1,1,1.4l1.9,1.1a2.9,2.9,0,0,1,1.6,2.5c0,1.6-1.3,2.6-3.2,2.6a5.7,5.7,0,0,1-2.5-.7V65.3a4.1,4.1,0,0,0,2.5.9c1.3,0,2-.6,2-1.5s-.3-1-1.2-1.6L230.5,62a2.6,2.6,0,0,1-1.4-2.3c0-1.4,1-2.5,3.1-2.5a4.4,4.4,0,0,1,2.2.6Z" fill="#231f20"/><path d="M249.1,66.5a4.8,4.8,0,0,1-2.7.8,5.1,5.1,0,0,1,0-10.1,5.7,5.7,0,0,1,2.7.7v1.4a4.1,4.1,0,0,0-2.7-1,3.9,3.9,0,0,0,0,7.8,4,4,0,0,0,2.7-.9Z" fill="#231f20"/><path d="M252.6,59.1a3.2,3.2,0,0,1,3.1-1.9,3.6,3.6,0,0,1,3.8,3.9v6h-1.2V61.3a2.7,2.7,0,0,0-2.8-3,2.8,2.8,0,0,0-2.9,2.9v5.9h-1.1V53.2h1.1Z" fill="#231f20"/><path d="M263.5,58.8a2.8,2.8,0,0,1,2.6-1.6h.9v1.2l-1.1-.2c-1.6,0-2.4,1.2-2.4,2.9v5.9h-1.1V57.4h1.1Z" fill="#231f20"/><path d="M269.4,53.4a.8.8,0,0,1,.8.8.8.8,0,0,1-.8.9.9.9,0,0,1-.9-.9A.9.9,0,0,1,269.4,53.4Zm.6,13.7h-1.2V57.4H270Z" fill="#231f20"/><path d="M277.8,59.1a3.6,3.6,0,0,0-2.3-.9c-1.2,0-1.9.7-1.9,1.5s.4,1,1.1,1.4l1.8,1.1a2.8,2.8,0,0,1,1.7,2.5c0,1.6-1.3,2.6-3.2,2.6a5,5,0,0,1-2.5-.7V65.3a4.1,4.1,0,0,0,2.5.9c1.3,0,2-.6,2-1.5s-.3-1-1.2-1.6L273.9,62a2.6,2.6,0,0,1-1.4-2.3c0-1.4,1-2.5,3.1-2.5a4.4,4.4,0,0,1,2.2.6Z" fill="#231f20"/><path d="M281.3,67.1V58.4h-2v-1h2.1V54.9l1.1-.3v2.8h2v1h-2v8.7Z" fill="#231f20"/><path d="M287.4,58.8a3,3,0,0,1,2.8-1.6,3.3,3.3,0,0,1,3.2,2.1,3,3,0,0,1,3-2.1,3.3,3.3,0,0,1,3.4,3.6v6.3h-1.1v-6a2.6,2.6,0,1,0-5.1,0v6h-1.1v-6a2.5,2.5,0,0,0-2.5-2.8,2.5,2.5,0,0,0-2.6,2.6v6.2h-1.1V57.4h1.1Z" fill="#231f20"/><path d="M303,57.9a5.4,5.4,0,0,1,2.7-.7c2,0,3.6,1,3.6,3.5v6.4h-1.2V65.8a3,3,0,0,1-2.7,1.5,3.3,3.3,0,1,1,0-6.5,3.4,3.4,0,0,1,2.7,1.3V60.7a2.3,2.3,0,0,0-2.5-2.4,4.7,4.7,0,0,0-2.6.8Zm2.6,8.4a2.4,2.4,0,0,0,2.5-2.3,2.5,2.5,0,0,0-2.5-2.3,2.4,2.4,0,0,0-2.5,2.3A2.4,2.4,0,0,0,305.6,66.3Z" fill="#231f20"/><path d="M317,59.1a3.6,3.6,0,0,0-2.3-.9c-1.2,0-1.9.7-1.9,1.5s.4,1,1.1,1.4l1.8,1.1a2.8,2.8,0,0,1,1.7,2.5c0,1.6-1.3,2.6-3.2,2.6a5,5,0,0,1-2.5-.7V65.3a4.1,4.1,0,0,0,2.5.9c1.3,0,2-.6,2-1.5s-.3-1-1.2-1.6L313.1,62a2.6,2.6,0,0,1-1.4-2.3c0-1.4,1-2.5,3.1-2.5a4.4,4.4,0,0,1,2.2.6Z" fill="#231f20"/></g></g></svg>