<svg xmlns="http://www.w3.org/2000/svg" width="336.3" height="77" viewBox="0 0 336.3 77"><title>get-baked-logo</title><g id="Layer_2" data-name="Layer 2"><g id="Layer_1-2" data-name="Layer 1"><path d="M38.6,13.4a28.7,28.7,0,0,0-13.3-3.2c-8.5,0-14.8,6.4-14.8,15.1s5.9,15,14.2,15,12.5-5.4,12.5-10.7V28.5H24.5V19.2H47.7a49.8,49.8,0,0,1,.6,7.2c0,12.8-8.2,24.1-23.9,24.1C10.2,50.5,0,39.5,0,25.3S10.7,0,25.3,0A35.7,35.7,0,0,1,38.6,2.3Z" fill="#231f20"/><path d="M61.6,34.9c.9,4.1,4.5,6.8,9.5,6.8a23,23,0,0,0,12.2-3.4v9.4a28.5,28.5,0,0,1-13,2.8c-10.6,0-18.5-7.5-18.5-18.7s7.6-18.6,18-18.6,16.7,7.8,16.7,17a21.2,21.2,0,0,1-.5,4.7Zm0-7.4H77.1c-.1-3.7-3.2-6.2-7.4-6.2S62.1,24.1,61.6,27.5Z" fill="#231f20"/><path d="M94.8,49.8V22.2H89.4V13.9h6V6l9.2-2v9.9h6.1v8.3h-6.1V49.8Z" fill="#231f20"/><path d="M132.3.8h17c8.9,0,15.2,5.2,15.2,13,0,5.4-2.3,8.9-5.8,10.8a12.1,12.1,0,0,1,7.2,11.6c0,8.1-6.8,13.6-16.2,13.6H132.3Zm16.9,9.9h-6.7v9h6.7c2.7,0,4.8-1.4,4.8-4.5S151.9,10.7,149.2,10.7Zm.5,18.9h-7.2V39.9h7.2c3.2,0,5.7-1.6,5.7-5.1S152.9,29.6,149.7,29.6Z" fill="#231f20"/><path d="M174.2,15.3a28.5,28.5,0,0,1,10.3-2.1c9.7,0,15.3,4.6,15.3,15V49.8H190V47.1a10.1,10.1,0,0,1-8,3.4c-8,0-11.8-5.6-11.8-11.6s4.7-11.5,12-11.5A12.2,12.2,0,0,1,190,30V28c0-4.3-2.9-6.1-6.6-6.1a18.3,18.3,0,0,0-9.2,2.7Zm10.7,28c2.8,0,5-1.9,5-4.4a5,5,0,0,0-10,0C179.9,41.4,182.1,43.3,184.9,43.3Z" fill="#231f20"/><path d="M207.6.1h9.8V27.4l9.8-13.5h11.6L228,28.4l10.8,21.4H227.4l-6.8-14.4-3.2,4.3V49.8h-9.8Z" fill="#231f20"/><path d="M249.9,34.9c.9,4.1,4.5,6.8,9.5,6.8a23.2,23.2,0,0,0,12.2-3.4v9.4a28.5,28.5,0,0,1-13,2.8c-10.6,0-18.5-7.5-18.5-18.7s7.6-18.6,17.9-18.6,16.8,7.8,16.8,17a29.5,29.5,0,0,1-.5,4.7Zm0-7.4h15.5c-.1-3.7-3.2-6.2-7.4-6.2S250.4,24.1,249.9,27.5Z" fill="#231f20"/><path d="M306.6,45.1a13.3,13.3,0,0,1-11,5.4c-10.1,0-17-8.2-17-18.7s6.9-18.6,17.1-18.6a13.1,13.1,0,0,1,10.9,5.3V.1h9.8V49.8h-9.8Zm-8.9-22.3a9.1,9.1,0,1,0,8.9,9A8.8,8.8,0,0,0,297.7,22.8Z" fill="#231f20"/><path d="M323.4,58l2-20h10.9l-3.9,20Z" fill="#231f20"/><path d="M134.8,76.7V62h-3.3V60.3h3.4V56.1l1.9-.6v4.8h3.4V62h-3.4V76.7Z" fill="#231f20"/><path d="M145.2,63.2a5.3,5.3,0,0,1,5.2-3.2c3.9,0,6.3,2.8,6.3,6.6V76.7h-1.9V67c0-3-1.8-5.1-4.8-5.1a4.5,4.5,0,0,0-4.8,4.9v9.9h-2V53.2h2Z" fill="#231f20"/><path d="M162.6,53.5a1.4,1.4,0,0,1,1.4,1.4,1.4,1.4,0,1,1-2.8,0A1.4,1.4,0,0,1,162.6,53.5Zm1,23.2h-2V60.3h2Z" fill="#231f20"/><path d="M176.9,63.1a6.6,6.6,0,0,0-3.9-1.4c-2,0-3.2,1.1-3.2,2.6s.6,1.6,1.8,2.3l3.1,1.9c2.2,1.3,2.8,2.7,2.8,4.1s-2.2,4.4-5.4,4.4a8.8,8.8,0,0,1-4.2-1.1V73.6a5.8,5.8,0,0,0,4.2,1.7c2.1,0,3.4-1.1,3.4-2.7s-.5-1.7-2-2.6l-3.3-2a4.1,4.1,0,0,1-2.4-3.7c0-2.4,1.8-4.3,5.3-4.3a8.2,8.2,0,0,1,3.8.9Z" fill="#231f20"/><path d="M201.8,75.7a8.8,8.8,0,0,1-4.6,1.3,8.5,8.5,0,0,1,0-17,8.8,8.8,0,0,1,4.6,1.2v2.3a7.1,7.1,0,0,0-4.6-1.6,6.6,6.6,0,0,0,0,13.2,7.1,7.1,0,0,0,4.6-1.6Z" fill="#231f20"/><path d="M207.7,63.2a5.5,5.5,0,0,1,5.2-3.2c3.9,0,6.4,2.8,6.4,6.6V76.7h-1.9V67c0-3-1.8-5.1-4.9-5.1s-4.7,2-4.8,4.9v9.9h-1.9V53.2h1.9Z" fill="#231f20"/><path d="M226.1,62.8a4.6,4.6,0,0,1,4.4-2.8H232v2.1a5.2,5.2,0,0,0-1.8-.3c-2.8,0-4,2-4.1,4.9v9.9h-1.9V60.3h1.9Z" fill="#231f20"/><path d="M236.1,53.5a1.4,1.4,0,0,1,1.4,1.4,1.4,1.4,0,0,1-1.4,1.5,1.5,1.5,0,0,1-1.5-1.5A1.5,1.5,0,0,1,236.1,53.5Zm.9,23.2h-1.9V60.3H237Z" fill="#231f20"/><path d="M250.3,63.1a6.3,6.3,0,0,0-3.8-1.4c-2,0-3.2,1.1-3.2,2.6s.6,1.6,1.7,2.3l3.2,1.9c2.2,1.3,2.8,2.7,2.8,4.1s-2.2,4.4-5.5,4.4a9.5,9.5,0,0,1-4.2-1.1V73.6a6,6,0,0,0,4.2,1.7c2.2,0,3.5-1.1,3.5-2.7s-.5-1.7-2-2.6l-3.3-2a4.1,4.1,0,0,1-2.4-3.7c0-2.4,1.8-4.3,5.2-4.3a7.9,7.9,0,0,1,3.8.9Z" fill="#231f20"/><path d="M256.3,76.7V62H253V60.3h3.4V56.1l1.8-.6v4.8h3.5V62h-3.5V76.7Z" fill="#231f20"/><path d="M266.6,62.7a5,5,0,0,1,4.7-2.7,5.4,5.4,0,0,1,5.4,3.6,5.1,5.1,0,0,1,5.1-3.6c3.4,0,5.9,2.2,5.9,6.1V76.7h-2V66.5c0-3-1.8-4.6-4.3-4.6s-4.3,1.6-4.3,4.6V76.7h-1.9V66.5c0-3-1.8-4.6-4.3-4.6s-4.2,1.5-4.3,4.4V76.7h-1.9V60.3h1.9Z" fill="#231f20"/><path d="M292.9,61.2a9.6,9.6,0,0,1,4.7-1.2c3.3,0,6,1.7,6,6V76.7h-1.9V74.6A5.5,5.5,0,0,1,297,77c-3.5,0-5.9-2.4-5.9-5.5s2.6-5.5,6-5.5a5.7,5.7,0,0,1,4.6,2.3V66a4,4,0,0,0-4.2-4.2,8.3,8.3,0,0,0-4.6,1.4Zm4.5,14.2a4.1,4.1,0,0,0,4.3-3.9,4.3,4.3,0,0,0-4.3-3.9,3.9,3.9,0,1,0,0,7.8Z" fill="#231f20"/><path d="M316.7,63.1a6.3,6.3,0,0,0-3.8-1.4c-2,0-3.2,1.1-3.2,2.6s.6,1.6,1.7,2.3l3.2,1.9c2.2,1.3,2.8,2.7,2.8,4.1s-2.2,4.4-5.5,4.4a9.5,9.5,0,0,1-4.2-1.1V73.6a6,6,0,0,0,4.2,1.7c2.2,0,3.5-1.1,3.5-2.7s-.5-1.7-2-2.6l-3.3-2a4.1,4.1,0,0,1-2.4-3.7c0-2.4,1.8-4.3,5.2-4.3a7.9,7.9,0,0,1,3.8.9Z" fill="#231f20"/></g></g></svg>